<svg width="98" height="98" viewBox="0 0 98 98" fill="none" xmlns="http://www.w3.org/2000/svg">
<g filter="url(#filter0_d_0_11)">
<circle cx="49" cy="45" r="40" fill="white"/>
<circle cx="49" cy="45" r="24.3333" stroke="#222222" stroke-width="3"/>
<path d="M65.7917 45H68.375" stroke="#222222" stroke-width="2" stroke-linecap="round"/>
<path d="M29.625 45H32.2083M49 25.625V28.2083M49 61.7917V64.375" stroke="#222222" stroke-width="2" stroke-linecap="round"/>
<path d="M36.1326 32.1982L43.2031 48.696C43.6077 49.6401 44.3599 50.3923 45.304 50.7969L61.8018 57.8674C61.8433 57.8852 61.8852 57.8433 61.8674 57.8018L54.7969 41.304C54.3923 40.3599 53.6401 39.6077 52.696 39.2031L36.1982 32.1326C36.1567 32.1148 36.1148 32.1567 36.1326 32.1982Z" stroke="#222222" stroke-width="3" stroke-linecap="round"/>
<circle cx="49" cy="45" r="6.5" stroke="#222222" stroke-width="2.5" stroke-linecap="round"/>
</g>
<defs>
<filter id="filter0_d_0_11" x="0" y="0" width="98" height="98" filterUnits="userSpaceOnUse" color-interpolation-filters="sRGB">
<feFlood flood-opacity="0" result="BackgroundImageFix"/>
<feColorMatrix in="SourceAlpha" type="matrix" values="0 0 0 0 0 0 0 0 0 0 0 0 0 0 0 0 0 0 127 0" result="hardAlpha"/>
<feOffset dy="4"/>
<feGaussianBlur stdDeviation="4.5"/>
<feComposite in2="hardAlpha" operator="out"/>
<feColorMatrix type="matrix" values="0 0 0 0 0 0 0 0 0 0 0 0 0 0 0 0 0 0 0.5 0"/>
<feBlend mode="normal" in2="BackgroundImageFix" result="effect1_dropShadow_0_11"/>
<feBlend mode="normal" in="SourceGraphic" in2="effect1_dropShadow_0_11" result="shape"/>
</filter>
</defs>
</svg>
